<svg version="1.1" id="Layer_1" xmlns="http://www.w3.org/2000/svg" xmlns:xlink="http://www.w3.org/1999/xlink" x="0px" y="0px"
	 width="100%" viewBox="0 0 496 496" enable-background="new 0 0 496 496" xml:space="preserve">
<path fill="#000000" opacity="1.000000" stroke="none" 
	d="
M309.419189,415.500427 
	C279.106903,425.242432 248.797989,426.979553 217.853821,421.059845 
	C190.189148,415.767517 164.777100,405.281158 142.406479,388.404938 
	C100.120995,356.505127 73.896721,314.445679 68.317757,261.397583 
	C64.612198,226.163010 70.726776,192.163681 87.758949,160.370804 
	C100.512070,136.565384 117.605186,116.576744 138.547714,100.009232 
	C160.269241,82.825462 185.216904,72.074974 212.296768,65.984558 
	C256.330658,56.081100 298.514313,61.724922 338.465637,81.837898 
	C367.565063,96.487617 390.726501,118.392578 408.393250,145.903625 
	C422.426422,167.756454 432.168701,191.279877 435.704742,217.141800 
	C439.223663,242.878403 437.687958,268.244843 429.989746,293.177460 
	C424.446533,311.130493 416.526337,327.836304 406.028595,343.476654 
	C393.206940,362.579437 377.038849,378.172302 358.376892,391.350555 
	C343.449463,401.891541 327.424072,410.261841 309.419189,415.500427 
M386.548340,154.894608 
	C372.102814,132.568939 352.911194,115.427284 329.365723,103.247314 
	C287.651520,81.668716 244.275528,77.740799 199.774063,92.959785 
	C169.472092,103.322701 143.707291,120.442223 123.931015,146.369583 
	C110.510490,163.964355 100.207909,182.660355 95.422409,204.386520 
	C89.634010,230.665848 88.946426,257.062561 95.842628,282.987762 
	C108.230286,329.557190 136.925674,363.588348 179.935028,384.850372 
	C221.623352,405.459320 265.085083,408.263947 308.790222,392.023468 
	C351.197540,376.265289 382.445160,347.365265 400.374268,305.702698 
	C422.818695,253.547653 418.192047,203.169052 386.548340,154.894608 
z"/>
<path fill="#000000" opacity="1.000000" stroke="none" 
	d="
M197.000031,256.974396 
	C240.156876,256.869476 282.813751,256.752289 325.470703,256.690491 
	C334.610565,256.677246 339.324036,261.435760 339.328278,270.499084 
	C339.337921,291.161621 339.331390,311.824158 339.287567,332.486633 
	C339.273285,339.226685 335.450836,344.680603 329.504822,346.692383 
	C321.029785,349.559784 312.771179,342.888245 312.733093,332.948914 
	C312.677490,318.452240 312.631287,303.951752 312.921326,289.459686 
	C313.016022,284.729187 311.631866,283.165009 306.745758,283.190796 
	C270.086853,283.384521 233.426193,283.379517 196.766983,283.225128 
	C192.230896,283.206024 191.126190,284.785645 191.198227,289.037964 
	C191.443771,303.531403 191.360596,318.030792 191.363724,332.527893 
	C191.365555,341.039459 186.367676,346.874603 179.005478,347.062256 
	C171.540894,347.252502 165.068207,340.723755 164.920212,332.493134 
	C164.773468,324.331329 164.731949,316.155731 165.033051,308.000549 
	C165.518570,294.850220 164.110626,281.681885 165.566986,268.544983 
	C166.362122,261.372498 171.630417,256.657990 179.010422,256.741882 
	C184.840469,256.808167 190.670197,256.900909 197.000031,256.974396 
z"/>
<path fill="#000000" opacity="1.000000" stroke="none" 
	d="
M335.900940,221.767639 
	C330.973022,226.512039 325.804596,227.470322 319.195770,226.670364 
	C308.493713,225.374985 297.567291,225.099106 286.780640,225.527115 
	C269.443542,226.214981 252.145721,225.415649 234.832535,225.282730 
	C216.173569,225.139481 197.536850,225.517410 178.913498,226.699188 
	C171.584915,227.164246 165.092560,220.566254 164.944092,212.136108 
	C164.838791,206.157883 165.614227,200.168716 165.644577,194.182648 
	C165.715530,180.186768 165.954376,166.174255 165.382248,152.198898 
	C165.017212,143.282211 173.632156,136.972321 178.966827,137.006927 
	C186.125381,137.053345 192.283325,144.577576 191.807449,152.660706 
	C190.993835,166.480316 191.588654,180.313339 191.236023,194.134201 
	C191.147919,197.587708 192.361969,198.891479 195.859299,198.778488 
	C215.342255,198.148987 234.834045,198.905075 254.330032,198.260437 
	C268.466217,197.792984 282.639648,198.533859 296.796997,198.580444 
	C301.925354,198.597321 307.055145,198.162613 311.993469,197.942459 
	C313.402161,195.997177 312.860260,194.112946 312.857208,192.333206 
	C312.833740,178.669724 313.166809,164.987473 312.528381,151.351364 
	C312.237183,145.131943 319.815369,136.882141 325.304565,136.898758 
	C332.001404,136.919022 339.259338,144.102707 339.296082,151.319916 
	C339.400452,171.815109 339.321075,192.311188 339.364258,212.806808 
	C339.371277,216.145004 338.307892,218.996490 335.900940,221.767639 
z"/>
</svg>